<svg xmlns="http://www.w3.org/2000/svg" viewBox="0 0 399 689"><path d="m120 689 2-2a42 42 0 0 0 15-34 61 61 0 0 0-26-48 554 554 0 0 1-54-41c-14-12-25-23-33-35a131 131 0 0 1-24-79 122 122 0 0 1 5-39l2 3a179 179 0 0 0 53 74c11 9 20 14 40 21l15 5a201 201 0 0 1 20 21c10 13 17 25 20 36 2 8 2 14 0 20-1 7-5 14-10 19l-2 1v1l1 2 2-1c10-6 20-15 27-23a81 81 0 0 0 14-22 128 128 0 0 1 22 33l1 1-1 2-4 14c-8 25-21 45-37 57a74 74 0 0 1-48 14zm84-10a94 94 0 0 0 13-58c-2-19-10-35-26-53l-3-3 1-2a72 72 0 0 0 0-35 432 432 0 0 0-48-111 1882 1882 0 0 0-19-33v-1 1l5 6a2362 2362 0 0 0 48 52l41 44c19 20 28 33 33 46a127 127 0 0 1-45 147v1zm-50-76c5-10 6-20 3-34-1-5-3-11-6-16-8-14-19-28-35-43a197 197 0 0 1-40-48 263 263 0 0 1-32-96l-1-24 1-21a226 226 0 0 1 36-101v-1l1 3a214 214 0 0 0 17 33l2 3-1 6a194 194 0 0 0 4 90c1 5 2 7 7 15a1660 1660 0 0 1 36 64c20 34 35 70 40 94l2 19c0 9-2 17-6 26a80 80 0 0 1-20 26l-9 7zm-44-94-7-2-17-7c-17-7-31-17-44-32a175 175 0 0 1-39-75 135 135 0 0 1-3-39c2-18 6-32 13-45a90 90 0 0 1 40-42l-2 4a222 222 0 0 0-4 125 262 262 0 0 0 38 84 192 192 0 0 0 25 29zm204-13c-10-1-23-4-31-8s-16-10-42-33a11932 11932 0 0 0-25-23l-7-7-2-1 1 3a405 405 0 0 0 5 51l-3-3-29-31a1707 1707 0 0 1-65-72c-5-6-9-13-11-19a160 160 0 0 1-7-59c1-12 2-23 5-33v-4l-2-2a192 192 0 0 1-28-134l4 1a160 160 0 0 1 84 84h1c1-2 6-5 7-5h10c8 1 16 5 21 10s7 8 10 18l3 10c6 12 17 23 33 32a82 82 0 0 0 40 13h1l3 3a78 78 0 0 0 23 17v3c-1 9-2 16-1 23 1 14 4 26 10 38 4 9 8 14 20 31a297 297 0 0 1 28 44c1 5 0 12-2 19a58 58 0 0 1-17 23c-9 7-17 10-28 11zm-99-149 3-1 3-4 4-4v-2l1-2 2-2 2-2v-6l-1-5 5-5c4-5 5-6 5-8l1-4h-6l-2-1-4-6-5-9-1-2-4-1-5-1-3 1h-3l-3-3-1-2h-11l-3 1-8 6-4 5a35 35 0 0 0-2 7c-1 1 0 3 1 6s1 3 4 5l2 2h2l6-1h4l2 1c2 1 3 2 3 4l3 6 1 4v1l-1 2v5l6 14 1 2h2l4-1zm126-40c-21 0-43-12-55-29l-4-8c-2-5-3-10-4-22l-2-15c-2-15-9-28-21-42l-10-10-1-1 1-7 2-7 2-9a108 108 0 0 1 5-16l9 4a129 129 0 0 1 62 84l4 28c1 13 3 19 6 24 4 8 11 14 22 16a67 67 0 0 0 24-3l-5 4c-10 7-23 10-35 9zm-1-23-2-2c-3-6-5-13-7-29l-2-14 3 3 13 14a44 44 0 0 0 33 9c6-1 14-3 19-6l2-1-1 2a74 74 0 0 1-58 24zm-59-3c-10-1-20-5-31-11-16-9-28-20-34-32l-4-10c-3-9-5-13-9-18-4-4-9-7-14-9l-12-3h-2 1a79 79 0 0 1 40-6c12 2 22 10 34 28l5 8c9 13 13 20 19 26l2 2v2c1 8 4 15 8 21l1 3h-1zm-8-32-16-24c-8-12-12-18-17-23-6-6-13-10-20-12-6-1-17-2-25 0a78 78 0 0 0-33 12 511 511 0 0 1-7-13l-1-3 1-1 11-9a67 67 0 0 1 31-11v-1h1l2 2c5 5 13 11 20 13l12 1a31 31 0 0 1 8 1c1-1 11 9 15 13 12 15 17 28 19 45l1 12-2-2zm-122-68a181 181 0 0 0-11-15 97 97 0 0 1 59-31l7-1-8 26v2h-1a63 63 0 0 0-28 9l-15 11-1 2zm76-3a32 32 0 0 1-13-4 63 63 0 0 1-10-8l-4-4 3-7a202 202 0 0 1 5-17l3-9 5-11 19-46 22-47a132 132 0 0 1 12-22l2-3h4l1 2v5l1 5-1 6a369 369 0 0 0-2 16l-12 65-7 31-2 4-2 7a91 91 0 0 1-4 15l-1 4-1 4a103 103 0 0 0-4 13l-3 1a3691 3691 0 0 0-11 0Zm77-1-8-10c-7-8-16-16-25-21l-2-1 4-5a137 137 0 0 1 36-25v6a2847 2847 0 0 0-1 18l-3 39-1-1z"/></svg>